Patient4_TMGait_0pt8_01_left_39_GRF.mot
version=1
nRows=58
nColumns=19
inDegrees=no
endheader
time	F1x	F1y	F1z	M1x	M1y	M1z	F2x	F2y	F2z	M2x	M2y	M2z	EC1x	EC1y	EC1z	EC2x	EC2y	EC2z
43.17	-4.5427	-11.3397	-2.1717	2.6645	0.46786	-13.9482	-24.7676	707.0115	-61.6513	281.5191	87.5767	812.2659	-0.0592	0.0182	-0.0073	-0.0462	0.0165	0.9585
43.1814	-3.3723	-6.9224	-1.3532	1.5228	-0.031732	-8.4093	-27.5192	702.5312	-62.783	280.3909	87.438	805.7673	-0.0592	0.0182	-0.0073	-0.0462	0.0165	0.9585
43.1929	-2.373	-3.2052	-0.65921	0.56006	-0.43028	-3.7718	-29.3778	700.2801	-63.6645	279.9818	86.9781	800.8089	-0.0592	0.0182	-0.0073	-0.0462	0.0165	0.9585
43.2043	-1.6146	-0.36511	-0.12522	-0.17566	-0.71905	-0.2442	-30.2489	700.932	-64.2537	280.5835	86.2353	798.1519	-0.0592	0.0182	-0.0073	-0.0462	0.0165	0.9585
43.2157	-1.0937	1.6	0.24918	-0.6818	-0.90827	2.1874	-30.1877	704.5384	-64.5462	282.2925	85.2435	797.9307	-0.0592	0.0182	-0.0073	-0.0462	0.0165	0.9585
43.2271	-0.78948	2.8331	0.49105	-0.99626	-1.0252	3.698	-29.3297	710.6914	-64.5226	285.0272	83.9861	799.8104	-0.0592	0.0182	-0.0073	-0.0462	0.0165	0.9585
43.2386	-0.64952	3.5111	0.63369	-1.1652	-1.0947	4.506	-27.7713	718.6034	-64.1601	288.5486	82.401	803.0218	-0.0592	0.0182	-0.0073	-0.0462	0.0165	0.9585
43.25	-0.64318	3.7866	0.70963	-1.2254	-1.1457	4.8118	-25.5929	727.3514	-63.4399	292.5305	80.4114	806.6514	-0.0592	0.0182	-0.0073	-0.0462	0.0165	0.9585
43.2614	-0.73523	3.7758	0.74897	-1.2037	-1.2022	4.7579	-22.7915	735.9221	-62.3726	296.5887	77.9444	809.6572	-0.0592	0.0182	-0.0073	-0.0462	0.0165	0.9585
43.2729	-0.90404	3.5272	0.76522	-1.1094	-1.2756	4.4243	-19.3213	743.4558	-61.0368	300.3751	74.9853	811.1513	-0.0592	0.0182	-0.0073	-0.0462	0.0165	0.9585
43.2843	-1.1307	3.0293	0.77649	-0.9333	-1.3739	3.7962	-15.0901	749.4399	-59.5145	303.6637	71.5281	810.5943	-0.0592	0.0182	-0.0073	-0.0462	0.0165	0.9585
43.2957	-1.3931	2.2303	0.78369	-0.65387	-1.4853	2.811	-10.1112	753.7527	-57.9104	306.3713	67.6395	807.9212	-0.0592	0.0182	-0.0073	-0.0462	0.0165	0.9585
43.3071	-1.6464	1.0591	0.794	-0.24595	-1.5943	1.3634	-4.4668	756.571	-56.3223	308.5237	63.4296	803.4179	-0.0592	0.0182	-0.0073	-0.0462	0.0165	0.9585
43.3186	-1.8359	-0.53991	0.79727	0.30871	-1.6662	-0.62501	1.6125	758.1246	-54.8994	310.1589	59.1291	797.4925	-0.0592	0.0182	-0.0073	-0.0462	0.0165	0.9585
43.33	-1.8568	-2.5965	0.77676	1.0154	-1.6424	-3.1927	7.8472	758.4695	-53.7971	311.2466	55.0112	790.3644	-0.0592	0.0182	-0.0073	-0.0462	0.0165	0.9585
43.3414	-1.5735	-5.0143	0.69149	1.8375	-1.425	-6.2305	13.9214	757.5063	-53.1591	311.6991	51.3557	782.1115	-0.0592	0.0182	-0.0073	-0.0462	0.0165	0.9585
43.3529	-0.80596	-7.5095	0.48896	2.6737	-0.88272	-9.3925	19.5389	755.0501	-53.0418	311.4184	48.3528	772.7077	-0.0592	0.0182	-0.0073	-0.0462	0.0165	0.9585
43.3643	0.6653	-9.509	0.10084	3.3232	0.14157	-11.9485	24.4552	751.0387	-53.4276	310.3649	46.1005	762.2272	-0.0592	0.0182	-0.0073	-0.0462	0.0165	0.9585
43.3757	3.0589	-10.0636	-0.53801	3.4553	1.8031	-12.7136	28.5227	745.5282	-54.2329	308.5703	44.593	750.8106	-0.0592	0.0182	-0.0073	-0.0462	0.0165	0.9585
43.3871	6.5361	-7.7775	-1.4835	2.5886	4.2256	-9.931	31.6945	738.7335	-55.3466	306.1365	43.7572	738.7259	-0.0592	0.0182	-0.0073	-0.0462	0.0165	0.9585
43.3986	11.1291	-0.79881	-2.7408	0.08491	7.4236	-1.2659	34.0647	730.8731	-56.6497	303.1769	43.4566	726.1818	-0.0592	0.0182	-0.0073	-0.0462	0.0165	0.9585
43.41	16.5787	13.0892	-4.2517	-4.8128	11.2273	16.0997	35.8141	722.0418	-57.9995	299.7588	43.4872	713.2282	-0.0592	0.0182	-0.0073	-0.0462	0.0165	0.9585
43.4214	22.2082	36.1684	-5.8335	-12.875	15.1604	45.0785	37.2386	712.1342	-59.2462	295.8667	43.5946	699.6596	-0.0592	0.0182	-0.0073	-0.0462	0.0165	0.9585
43.4329	26.6816	70.279	-7.1342	-24.7049	18.3037	88.0337	38.592	700.791	-60.1753	291.379	43.4685	685.0366	-0.0592	0.0182	-0.0073	-0.0462	0.0165	0.9585
43.4443	27.8624	115.9797	-7.5593	-40.4536	19.1607	145.7211	40.0853	687.3228	-60.5841	286.0335	42.8327	668.6205	-0.0592	0.0182	-0.0073	-0.0462	0.0165	0.9585
43.4557	23.4487	172.2563	-6.3275	-59.7199	16.008	216.9542	41.7798	670.7429	-60.2567	279.4338	41.4565	649.4307	-0.0592	0.0182	-0.0073	-0.0462	0.0165	0.9585
43.4671	12.8914	237.2085	-2.9425	-81.7876	8.0343	299.381	43.6033	649.8188	-59.0405	271.0729	39.2273	626.3002	-0.0592	0.0182	-0.0073	-0.0462	0.0165	0.9585
43.4786	-2.0801	307.4495	2.8616	-105.4228	-4.4996	388.6074	45.3228	623.2768	-56.8752	260.404	36.1787	598.0846	-0.0592	0.0182	-0.0073	-0.0462	0.0165	0.9585
43.49	-18.8827	376.4138	11.2506	-128.3796	-20.8146	475.945	46.6371	589.8962	-53.8187	246.8974	32.4897	563.687	-0.0592	0.0182	-0.0073	-0.0462	0.0165	0.9585
43.5014	-34.7654	437.5781	21.5981	-148.5217	-39.0662	552.6609	47.2093	548.8706	-50.0136	230.1887	28.4386	522.4018	-0.0592	0.0182	-0.0073	-0.0462	0.0165	0.9585
43.5129	-47.9103	488.4696	32.3182	-165.1253	-56.6797	615.2844	46.7054	500.2832	-45.6042	210.2702	24.3076	474.3682	-0.0592	0.0182	-0.0073	-0.0462	0.0165	0.9585
43.5243	-57.6878	530.0988	42.1023	-178.6466	-71.7979	664.97	44.8512	445.2026	-40.8231	187.5455	20.4327	420.6521	-0.0592	0.0182	-0.0073	-0.0462	0.0165	0.9585
43.5357	-64.0148	564.8236	49.9171	-189.9849	-83.1769	704.7166	41.5148	385.5937	-35.8575	162.8032	17.0412	363.1445	-0.0592	0.0182	-0.0073	-0.0462	0.0165	0.9585
43.5471	-67.0988	594.7533	55.343	-199.91	-90.3912	737.3072	36.7305	324.0365	-30.8872	137.1105	14.2775	304.2862	-0.0592	0.0182	-0.0073	-0.0462	0.0165	0.9585
43.5586	-67.2245	621.1888	58.3684	-208.8747	-93.5868	764.4563	30.7356	263.4481	-26.0475	111.6968	12.1578	246.782	-0.0592	0.0182	-0.0073	-0.0462	0.0165	0.9585
43.57	-64.7719	644.7849	59.5583	-217.049	-93.6072	787.1512	24.0241	206.6952	-21.4834	87.7838	10.6065	193.2482	-0.0592	0.0182	-0.0073	-0.0462	0.0165	0.9585
43.5814	-60.2715	665.847	59.6134	-224.4539	-91.5246	805.9722	17.2579	156.0978	-17.3102	66.3777	9.4491	145.7422	-0.0592	0.0182	-0.0073	-0.0462	0.0165	0.9585
43.5929	-54.3789	684.5333	59.269	-231.0428	-88.4671	821.3649	11.1323	113.0513	-13.5966	48.1026	8.4632	105.4438	-0.0592	0.0182	-0.0073	-0.0462	0.0165	0.9585
43.6043	-47.7454	700.9594	59.114	-236.7592	-85.3749	833.7278	6.1003	77.9581	-10.363	33.1658	7.4759	72.6569	-0.0592	0.0182	-0.0073	-0.0462	0.0165	0.9585
43.6157	-40.9843	715.2365	59.5235	-241.5601	-82.9034	843.4023	2.3174	50.5135	-7.5676	21.4676	6.3834	47.0553	-0.0592	0.0182	-0.0073	-0.0462	0.0165	0.9585
43.6271	-34.5417	727.508	60.669	-245.4373	-81.3935	850.7436	-0.27959	29.9792	-5.2128	12.7116	5.2129	27.9423	-0.0592	0.0182	-0.0073	-0.0462	0.0165	0.9585
43.6386	-28.6868	737.9374	62.4214	-248.422	-80.7869	856.0847	-1.8417	15.4085	-3.2891	6.5026	4.0203	14.4342	-0.0592	0.0182	-0.0073	-0.0462	0.0165	0.9585
43.65	-23.5543	746.5916	64.5557	-250.541	-80.8556	859.6104	-2.5608	5.8127	-1.8186	2.4163	2.9094	5.6023	-0.0592	0.0182	-0.0073	-0.0462	0.0165	0.9585
43.6614	-19.1438	753.3644	66.72	-251.7943	-81.1982	861.2592	-2.6719	0.17213	-0.79205	0.017192	1.9722	0.47329	-0.0592	0.0182	-0.0073	-0.0462	0.0165	0.9585
43.6729	-15.3911	758.0079	68.6434	-252.1516	-81.479	860.7593	-2.4447	-2.5309	-0.15719	-1.1338	1.2682	-1.9143	-0.0592	0.0182	-0.0073	-0.0462	0.0165	0.9585
43.6843	-12.1919	760.2164	70.1342	-251.5724	-81.4521	857.7394	-2.0543	-3.274	0.18463	-1.4514	0.77886	-2.4945	-0.0592	0.0182	-0.0073	-0.0462	0.0165	0.9585
43.6957	-9.412	759.8304	71.1215	-250.0604	-80.9992	851.9939	-1.6344	-2.8554	0.31736	-1.2765	0.47951	-1.9996	-0.0592	0.0182	-0.0073	-0.0462	0.0165	0.9585
43.7071	-6.9427	756.9037	71.6113	-247.6883	-80.0961	843.5618	-1.2452	-1.8753	0.31746	-0.86367	0.3243	-0.99575	-0.0592	0.0182	-0.0073	-0.0462	0.0165	0.9585
43.7186	-4.6932	751.7033	71.6374	-244.5929	-78.7599	832.7386	-0.92401	-0.729	0.25126	-0.38233	0.26433	0.1406	-0.0592	0.0182	-0.0073	-0.0462	0.0165	0.9585
43.73	-2.5854	744.7351	71.291	-240.9728	-77.0749	820.0913	-0.67399	0.32915	0.15496	0.063272	0.2654	1.1512	-0.0592	0.0182	-0.0073	-0.0462	0.0165	0.9585
43.7414	-0.56563	736.6823	70.6388	-237.0756	-75.1078	806.3588	-0.49722	1.1902	0.05759	0.42601	0.30062	1.9432	-0.0592	0.0182	-0.0073	-0.0462	0.0165	0.9585
43.7529	1.4466	728.3382	69.7981	-233.1723	-72.9622	792.4018	-0.37797	1.8142	-0.027374	0.69164	0.35151	2.4921	-0.0592	0.0182	-0.0073	-0.0462	0.0165	0.9585
43.7643	3.5399	720.4819	68.8643	-229.5231	-70.7097	779.0523	-0.31216	2.2339	-0.097189	0.87331	0.40995	2.8467	-0.0592	0.0182	-0.0073	-0.0462	0.0165	0.9585
43.7757	5.7825	713.8194	67.9194	-226.3518	-68.4125	767.0474	-0.2808	2.4932	-0.15185	0.99041	0.46381	3.0577	-0.0592	0.0182	-0.0073	-0.0462	0.0165	0.9585
43.7871	8.2176	708.9252	67.0044	-223.8291	-66.0985	756.9844	-0.27743	2.6497	-0.18701	1.0663	0.4984	3.1979	-0.0592	0.0182	-0.0073	-0.0462	0.0165	0.9585
43.7986	10.8264	706.1581	66.1052	-222.0517	-63.7617	749.2429	-0.29045	2.752	-0.21434	1.1196	0.51917	3.3202	-0.0592	0.0182	-0.0073	-0.0462	0.0165	0.9585
43.81	13.5715	705.6393	65.2304	-221.0364	-61.4277	743.9529	-0.32654	2.841	-0.2317	1.1651	0.5333	3.4576	-0.0592	0.0182	-0.0073	-0.0462	0.0165	0.9585
43.8214	16.4251	707.2509	64.379	-220.7248	-59.1123	740.9807	-0.3797	2.931	-0.25237	1.2064	0.56202	3.6183	-0.0592	0.0182	-0.0073	-0.0462	0.0165	0.9585
